<svg width="24" height="24" viewBox="0 0 24 24" fill="none" xmlns="http://www.w3.org/2000/svg">
<g id="simple-line-icons:basket" clip-path="url(#clip0_334_981)">
<path id="Vector" d="M23.8044 6.65627C23.7356 6.55857 23.6444 6.47883 23.5384 6.42376C23.4323 6.36868 23.3146 6.3399 23.1951 6.33982H7.27786L6.07299 2.18482C5.60049 0.548695 4.47771 0.37207 4.01721 0.37207H0.804588C0.392814 0.37207 0.0598145 0.705445 0.0598145 1.11682C0.0598145 1.5282 0.393189 1.86155 0.804564 1.86155H4.01681C4.11844 1.86155 4.42856 1.86155 4.64009 2.59242L8.78496 17.8253C8.87496 18.1467 9.16784 18.3686 9.50194 18.3686H19.6262C19.9405 18.3686 20.2209 18.1718 20.3271 17.8759L23.8956 7.33652C23.9777 7.10815 23.9436 6.8539 23.8044 6.65627ZM17.625 19.8781C16.5892 19.8781 15.75 20.7173 15.75 21.7531C15.75 22.7888 16.5892 23.6281 17.625 23.6281C18.6607 23.6281 19.5 22.7888 19.5 21.7531C19.5 20.7173 18.6607 19.8781 17.625 19.8781ZM10.875 19.8781C9.83923 19.8781 8.99998 20.7173 8.99998 21.7531C8.99998 22.7888 9.83923 23.6281 10.875 23.6281C11.9107 23.6281 12.75 22.7888 12.75 21.7531C12.75 20.7173 11.9107 19.8781 10.875 19.8781Z" fill="#262626"/>
</g>
<defs>
<clipPath id="clip0_334_981">
<rect width="24" height="24" fill="white"/>
</clipPath>
</defs>
</svg>
