<svg width="16" height="16" viewBox="0 0 16 16" fill="none" xmlns="http://www.w3.org/2000/svg">
<g id="MKI/Ikon/Instagram" clip-path="url(#clip0_482_90)">
<path id="Vector" d="M8 1.42556C9.06168 1.42556 9.76112 1.42868 10.0984 1.43494C10.4356 1.44119 10.8165 1.45682 11.2412 1.48183C11.6159 1.49433 11.9219 1.52872 12.1593 1.58499C12.3966 1.64127 12.5839 1.71317 12.7213 1.8007C12.8962 1.85072 13.0585 1.92575 13.2084 2.02579C13.3583 2.12583 13.502 2.23837 13.6393 2.36342C13.7767 2.50098 13.8891 2.63853 13.9766 2.77608C14.064 2.91364 14.139 3.08245 14.2014 3.28253C14.2389 3.42009 14.2888 3.60453 14.3513 3.83587C14.4137 4.06721 14.4575 4.37671 14.4824 4.76436C14.4949 5.17702 14.5043 5.55529 14.5105 5.89918C14.5168 6.24307 14.5199 6.94021 14.5199 7.99062C14.5199 9.05354 14.5168 9.75693 14.5105 10.1008C14.5043 10.4447 14.4949 10.823 14.4824 11.2356C14.4824 11.6233 14.4543 11.9328 14.3981 12.1641C14.3419 12.3955 14.2763 12.5799 14.2014 12.7175C14.139 12.8925 14.0578 13.0551 13.9578 13.2052C13.8579 13.3552 13.7518 13.499 13.6393 13.6366C13.502 13.7741 13.3646 13.8867 13.2272 13.9742C13.0898 14.0617 12.9212 14.1368 12.7213 14.1993C12.5839 14.2368 12.3966 14.2868 12.1593 14.3494C11.9219 14.4119 11.6159 14.4556 11.2412 14.4807C10.8165 14.5057 10.4356 14.5182 10.0984 14.5182C9.76112 14.5182 9.06168 14.5182 8 14.5182C6.93832 14.5182 6.23888 14.5182 5.90164 14.5182C5.5644 14.5182 5.18345 14.5057 4.75878 14.4807C4.38407 14.4807 4.07806 14.4525 3.84075 14.3962C3.60343 14.34 3.41608 14.2743 3.27869 14.1993C3.10382 14.1368 2.94145 14.0586 2.79157 13.9648C2.64169 13.871 2.49805 13.7616 2.36066 13.6366C2.22326 13.499 2.11085 13.3615 2.02342 13.2239C1.93599 13.0864 1.86105 12.9175 1.79859 12.7175C1.74863 12.5799 1.68931 12.3955 1.62061 12.1641C1.55191 11.9328 1.50507 11.6233 1.48009 11.2356C1.4676 10.823 1.45824 10.4447 1.45199 10.1008C1.44575 9.75693 1.44262 9.05354 1.44262 7.99062C1.44262 6.94021 1.44575 6.24307 1.45199 5.89918C1.45824 5.55529 1.4676 5.17702 1.48009 4.76436C1.50507 4.37671 1.54567 4.06721 1.60187 3.83587C1.65808 3.60453 1.72365 3.42009 1.79859 3.28253C1.86105 3.09496 1.94223 2.92927 2.04215 2.78546C2.14208 2.64166 2.24824 2.50098 2.36066 2.36342C2.49805 2.21336 2.63544 2.09457 2.77283 2.00703C2.91023 1.9195 3.07884 1.85072 3.27869 1.8007C3.41608 1.73818 3.60343 1.67253 3.84075 1.60375C4.07806 1.53497 4.38407 1.49433 4.75878 1.48183C5.18345 1.48183 5.5644 1.47245 5.90164 1.45369C6.23888 1.43494 6.93832 1.42556 8 1.42556ZM8 0C6.92583 0 6.21702 0 5.87354 0C5.53005 0 5.14598 0.0125048 4.72131 0.0375147C4.29664 0.0500197 3.92818 0.0875339 3.61593 0.150059C3.30367 0.212583 3.02264 0.293864 2.77283 0.393904C2.51054 0.518953 2.25761 0.647127 2.01405 0.778429C1.77049 0.909731 1.54255 1.08792 1.33021 1.31301C1.10539 1.5381 0.924279 1.76944 0.786885 2.00703C0.649492 2.24463 0.524591 2.49472 0.412178 2.75733C0.324746 2.99492 0.246683 3.27628 0.177986 3.60141C0.109289 3.92654 0.0624513 4.29543 0.0374707 4.70809C0.0249803 5.13326 0.0156128 5.51778 0.00936756 5.86166C0.0031226 6.20555 0 6.9152 0 7.99062C0 9.07855 0.0031226 9.79445 0.00936756 10.1383C0.0156128 10.4822 0.0249803 10.8605 0.0374707 11.2732C0.0624513 11.6983 0.106167 12.0672 0.168618 12.3798C0.23107 12.6925 0.312255 12.9801 0.412178 13.2427C0.524591 13.5053 0.649492 13.7491 0.786885 13.9742C0.924279 14.1993 1.10539 14.4369 1.33021 14.687C1.54255 14.8996 1.76425 15.0809 1.99532 15.2309C2.22639 15.381 2.48556 15.5061 2.77283 15.6061C3.01015 15.6811 3.28805 15.753 3.60656 15.8218C3.92506 15.8906 4.29664 15.9375 4.72131 15.9625C5.14598 15.975 5.53005 15.9844 5.87354 15.9906C6.21702 15.9969 6.92583 16 8 16C9.07417 16 9.78298 15.9969 10.1265 15.9906C10.4699 15.9844 10.854 15.975 11.2787 15.9625C11.7034 15.9375 12.0718 15.8968 12.3841 15.8406C12.6963 15.7843 12.9774 15.7061 13.2272 15.6061C13.4895 15.481 13.7361 15.3497 13.9672 15.2122C14.1983 15.0746 14.4325 14.8996 14.6698 14.687C14.8946 14.4619 15.0788 14.2337 15.2225 14.0023C15.3661 13.771 15.4879 13.5178 15.5878 13.2427C15.6753 13.0051 15.7533 12.7237 15.822 12.3986C15.8907 12.0735 15.9375 11.6983 15.9625 11.2732C15.975 10.8605 15.9844 10.4822 15.9906 10.1383C15.9969 9.79445 16 9.07855 16 7.99062C16 6.9152 15.9969 6.20555 15.9906 5.86166C15.9844 5.51778 15.975 5.13326 15.9625 4.70809C15.9375 4.29543 15.8938 3.93279 15.8314 3.62016C15.7689 3.30754 15.6877 3.01993 15.5878 2.75733C15.4754 2.49472 15.3505 2.24775 15.2131 2.01641C15.0757 1.78507 14.8946 1.55061 14.6698 1.31301C14.4575 1.07542 14.2295 0.8941 13.9859 0.76905C13.7424 0.644001 13.4895 0.518953 13.2272 0.393904C12.9899 0.318874 12.7119 0.243846 12.3934 0.168816C12.0749 0.0937862 11.7034 0.0500197 11.2787 0.0375147C10.854 0.0125048 10.4699 0 10.1265 0C9.78298 0 9.07417 0 8 0ZM8 3.92028C7.42545 3.92028 6.89149 4.02657 6.39813 4.23916C5.90476 4.45174 5.47385 4.74248 5.10539 5.11137C4.73692 5.48027 4.44653 5.91481 4.23419 6.41501C4.02186 6.9152 3.91569 7.4404 3.91569 7.99062C3.91569 8.55334 4.02186 9.08167 4.23419 9.57561C4.44653 10.0696 4.73692 10.5041 5.10539 10.8792C5.47385 11.2544 5.90476 11.5483 6.39813 11.7608C6.89149 11.9734 7.42545 12.0797 8 12.0797C8.57455 12.0797 9.10851 11.9734 9.60187 11.7608C10.0952 11.5483 10.5261 11.2575 10.8946 10.8886C11.2631 10.5197 11.5535 10.0883 11.7658 9.59437C11.9781 9.10043 12.0843 8.56585 12.0843 7.99062C12.0843 7.4279 11.9781 6.89645 11.7658 6.39625C11.5535 5.89605 11.2631 5.46464 10.8946 5.10199C10.5261 4.73935 10.0952 4.45174 9.60187 4.23916C9.10851 4.02657 8.57455 3.92028 8 3.92028ZM8 10.6729C7.26307 10.6729 6.63232 10.4134 6.10773 9.89449C5.58314 9.37553 5.32084 8.74092 5.32084 7.99062C5.32084 7.25283 5.58314 6.62134 6.10773 6.09613C6.63232 5.57092 7.26307 5.30832 8 5.30832C8.73693 5.30832 9.36768 5.57092 9.89227 6.09613C10.4169 6.62134 10.6792 7.25283 10.6792 7.99062C10.6792 8.74092 10.4169 9.37553 9.89227 9.89449C9.36768 10.4134 8.73693 10.6729 8 10.6729ZM13.2272 3.71395C13.2272 3.45135 13.1335 3.22626 12.9461 3.03869C12.7588 2.85111 12.534 2.75733 12.2717 2.75733C12.0094 2.75733 11.7845 2.85111 11.5972 3.03869C11.4098 3.22626 11.3162 3.45135 11.3162 3.71395C11.3162 3.97655 11.4098 4.20164 11.5972 4.38921C11.7845 4.57679 12.0094 4.67057 12.2717 4.67057C12.534 4.67057 12.7588 4.57679 12.9461 4.38921C13.1335 4.20164 13.2272 3.97655 13.2272 3.71395Z" fill="white"/>
</g>
<defs>
<clipPath id="clip0_482_90">
<rect width="16" height="16" fill="white"/>
</clipPath>
</defs>
</svg>
