<svg width="17" height="16" viewBox="0 0 17 16" fill="none" xmlns="http://www.w3.org/2000/svg">
<g id="facebook_logo_2">
<g id="Group">
<path id="Subtract" fill-rule="evenodd" clip-rule="evenodd" d="M8.50024 0C13.1947 0 17.0002 3.58172 17.0002 8C17.0002 11.9928 13.8922 15.3024 9.82887 15.9027V10.3125H11.8089L11.8089 10.3124H11.8094L12.1863 7.99995H9.82887V6.49932C9.82887 5.92232 10.1028 5.35858 10.952 5.26386C11.0338 5.25475 11.1209 5.25 11.2136 5.25H12.2854V5.24995H12.2859V3.2812C12.2859 3.2812 11.3132 3.12495 10.3832 3.12495C10.2068 3.12495 10.0359 3.13409 9.87104 3.15222C8.22121 3.33346 7.17212 4.4145 7.17212 6.2375V7.99995H5.01441V8H5.01392V10.3125H7.17212V15.9028C3.10855 15.3027 0.000244141 11.993 0.000244141 8C0.000244141 3.58172 3.80582 0 8.50024 0Z" fill="white"/>
</g>
</g>
</svg>
