<svg width="17" height="12" viewBox="0 0 17 12" fill="none" xmlns="http://www.w3.org/2000/svg">
<g id="Youtube/White">
<g id="Youtube/White_2">
<path id="Youtube" fill-rule="evenodd" clip-rule="evenodd" d="M6.74473 8.21294L6.7442 3.41924L11.3374 5.82435L6.74473 8.21294ZM16.83 2.58853C16.83 2.58853 16.6637 1.41289 16.1542 0.895188C15.5077 0.2154 14.7831 0.212201 14.4511 0.172746C12.0721 0 8.50372 0 8.50372 0H8.49628C8.49628 0 4.92788 0 2.54894 0.172746C2.21637 0.212201 1.49228 0.2154 0.845219 0.895188C0.33575 1.41289 0.17 2.58853 0.17 2.58853C0.17 2.58853 0 3.96943 0 5.3498V6.64433C0 8.02524 0.17 9.40561 0.17 9.40561C0.17 9.40561 0.33575 10.5812 0.845219 11.0989C1.49228 11.7787 2.34175 11.7574 2.72 11.8283C4.08 11.9595 8.5 12 8.5 12C8.5 12 12.0721 11.9947 14.4511 11.8219C14.7831 11.7819 15.5077 11.7787 16.1542 11.0989C16.6637 10.5812 16.83 9.40561 16.83 9.40561C16.83 9.40561 17 8.02524 17 6.64433V5.3498C17 3.96943 16.83 2.58853 16.83 2.58853Z" fill="white"/>
</g>
</g>
</svg>
